<svg
  xmlns="http://www.w3.org/2000/svg"
  xmlns:xlink="http://www.w3.org/1999/xlink"
  width="960"
  zoomAndPan="magnify"
  viewBox="0 0 720 496.499985"
  height="662"
  preserveAspectRatio="xMidYMid meet"
  version="1.0"
>
  <defs>
    <clipPath id="71c6fe7813">
      <path
        d="M 2 0 L 717 0 L 717 496 L 2 496 Z M 2 0 "
        clip-rule="nonzero"
      />
    </clipPath>
    <clipPath id="6c75a1a05c">
      <path
        d="M 257.089844 318.742188 L 276.71875 318.742188 L 276.71875 393 L 257.089844 393 Z M 257.089844 318.742188 "
        clip-rule="nonzero"
      />
    </clipPath>
    <clipPath id="e35ac85bf3">
      <path
        d="M 260.351562 319.476562 C 269.714844 333.488281 270.839844 336.5625 271.890625 339.859375 C 272.9375 343.230469 273.761719 346.449219 274.359375 350.421875 C 275.183594 355.292969 275.558594 360.835938 275.859375 366.90625 C 276.234375 374.171875 277.132812 387.960938 276.308594 391.179688 C 276.160156 392.003906 276.007812 392.453125 275.558594 392.679688 C 275.035156 392.980469 273.761719 392.90625 273.3125 392.53125 C 272.863281 392.230469 272.5625 391.480469 272.636719 390.957031 C 272.714844 390.355469 273.613281 389.457031 274.210938 389.308594 C 274.660156 389.15625 275.484375 389.53125 275.859375 389.90625 C 276.160156 390.207031 276.460938 391.03125 276.308594 391.554688 C 276.160156 392.082031 275.183594 392.90625 274.585938 392.980469 C 274.0625 393.054688 273.460938 392.90625 273.011719 392.304688 C 271.363281 389.757812 272.863281 374.546875 272.488281 367.054688 C 272.113281 361.210938 271.738281 355.890625 270.988281 351.171875 C 270.390625 347.425781 269.640625 344.351562 268.667969 341.132812 C 267.691406 338.058594 266.71875 335.363281 265.144531 332.289062 C 263.121094 328.695312 257.429688 323.523438 257.128906 321.203125 C 256.980469 320.152344 257.429688 319.179688 258.027344 318.878906 C 258.550781 318.578125 260.351562 319.476562 260.351562 319.476562 "
        clip-rule="nonzero"
      />
    </clipPath>
  </defs>
  <g clip-path="url(#71c6fe7813)">
    <path
      fill="currentColor"
      d="M 550.695312 220.800781 L 512.042969 283.785156 L 341.199219 0.308594 L 147.9375 315.273438 L 130.945312 287.085938 L 2.605469 496.335938 L 716.800781 496.335938 Z M 550.695312 220.800781 "
      fill-opacity="1"
      fill-rule="nonzero"
    />
  </g>
  <g clip-path="url(#6c75a1a05c)">
    <g clip-path="url(#e35ac85bf3)">
      <path
        fill="currentColor"
        d="M 254.132812 315.882812 L 279.382812 315.882812 L 279.382812 396.070312 L 254.132812 396.070312 Z M 254.132812 315.882812 "
        fill-opacity="1"
        fill-rule="nonzero"
      />
    </g>
  </g>
</svg>
