<svg xmlns="http://www.w3.org/2000/svg" xmlns:xlink="http://www.w3.org/1999/xlink" width="1000" zoomAndPan="magnify" viewBox="0 0 750 599.999999" height="800" preserveAspectRatio="xMidYMid meet" version="1.0"><defs><g/><clipPath id="c930a9c59e"><path d="M 17 7.085938 L 726 7.085938 L 726 499.085938 L 17 499.085938 Z M 17 7.085938 " clip-rule="nonzero"/></clipPath></defs><g clip-path="url(#c930a9c59e)"><path fill="#000000" d="M 560.8125 226.105469 L 522.484375 288.582031 L 353.070312 7.390625 L 161.425781 319.820312 L 144.574219 291.859375 L 17.308594 499.417969 L 725.53125 499.417969 Z M 560.8125 226.105469 " fill-opacity="1" fill-rule="nonzero"/></g><g fill="#000000" fill-opacity="1"><g transform="translate(149.610668, 577.955331)"><g><path d="M 36.53125 1 C 30.175781 1 24.613281 -0.453125 19.84375 -3.359375 C 15.082031 -6.273438 11.410156 -10.429688 8.828125 -15.828125 C 6.253906 -21.222656 4.96875 -27.523438 4.96875 -34.734375 C 4.96875 -41.953125 6.253906 -48.253906 8.828125 -53.640625 C 11.410156 -59.035156 15.082031 -63.1875 19.84375 -66.09375 C 24.613281 -69.007812 30.175781 -70.46875 36.53125 -70.46875 C 40.164062 -70.46875 43.550781 -69.890625 46.6875 -68.734375 C 49.832031 -67.578125 52.347656 -66.253906 54.234375 -64.765625 C 56.117188 -63.273438 57.0625 -62.132812 57.0625 -61.34375 C 57.0625 -60.144531 56.398438 -59.546875 55.078125 -59.546875 C 52.703125 -62.066406 49.875 -64.003906 46.59375 -65.359375 C 43.320312 -66.710938 39.703125 -67.390625 35.734375 -67.390625 C 30.304688 -67.390625 25.554688 -66.046875 21.484375 -63.359375 C 17.421875 -60.679688 14.296875 -56.894531 12.109375 -52 C 9.921875 -47.101562 8.828125 -41.347656 8.828125 -34.734375 C 8.828125 -28.117188 9.921875 -22.363281 12.109375 -17.46875 C 14.296875 -12.570312 17.421875 -8.78125 21.484375 -6.09375 C 25.554688 -3.414062 30.304688 -2.078125 35.734375 -2.078125 C 39.703125 -2.078125 43.320312 -2.753906 46.59375 -4.109375 C 49.875 -5.472656 52.703125 -7.410156 55.078125 -9.921875 C 56.398438 -9.921875 57.0625 -9.328125 57.0625 -8.140625 C 57.0625 -7.347656 56.117188 -6.207031 54.234375 -4.71875 C 52.347656 -3.226562 49.832031 -1.898438 46.6875 -0.734375 C 43.550781 0.421875 40.164062 1 36.53125 1 Z M 36.53125 1 "/></g></g></g><g fill="#000000" fill-opacity="1"><g transform="translate(211.644045, 577.955331)"><g><path d="M 25.203125 1 C 20.910156 1 17.15625 -0.0703125 13.9375 -2.21875 C 10.726562 -4.375 8.265625 -7.4375 6.546875 -11.40625 C 4.828125 -15.382812 3.96875 -20.019531 3.96875 -25.3125 C 3.96875 -30.601562 4.828125 -35.234375 6.546875 -39.203125 C 8.265625 -43.171875 10.726562 -46.226562 13.9375 -48.375 C 17.15625 -50.53125 20.910156 -51.609375 25.203125 -51.609375 C 29.503906 -51.609375 33.257812 -50.53125 36.46875 -48.375 C 39.675781 -46.226562 42.140625 -43.171875 43.859375 -39.203125 C 45.585938 -35.234375 46.453125 -30.601562 46.453125 -25.3125 C 46.453125 -20.019531 45.585938 -15.382812 43.859375 -11.40625 C 42.140625 -7.4375 39.675781 -4.375 36.46875 -2.21875 C 33.257812 -0.0703125 29.503906 1 25.203125 1 Z M 25.203125 -1.984375 C 30.566406 -1.984375 34.816406 -4.082031 37.953125 -8.28125 C 41.097656 -12.488281 42.671875 -18.164062 42.671875 -25.3125 C 42.671875 -32.457031 41.097656 -38.128906 37.953125 -42.328125 C 34.816406 -46.523438 30.566406 -48.625 25.203125 -48.625 C 19.847656 -48.625 15.597656 -46.523438 12.453125 -42.328125 C 9.304688 -38.128906 7.734375 -32.457031 7.734375 -25.3125 C 7.734375 -18.164062 9.304688 -12.488281 12.453125 -8.28125 C 15.597656 -4.082031 19.847656 -1.984375 25.203125 -1.984375 Z M 25.203125 -1.984375 "/></g></g></g><g fill="#000000" fill-opacity="1"><g transform="translate(262.064829, 577.955331)"><g><path d="M 22.828125 1 C 17.796875 1 13.789062 -0.632812 10.8125 -3.90625 C 7.84375 -7.1875 6.359375 -11.609375 6.359375 -17.171875 L 6.359375 -47.546875 C 6.359375 -49.859375 7.148438 -51.015625 8.734375 -51.015625 C 9.128906 -51.015625 9.5625 -50.882812 10.03125 -50.625 L 10.03125 -17.171875 C 10.03125 -12.535156 11.1875 -8.859375 13.5 -6.140625 C 15.8125 -3.429688 18.921875 -2.078125 22.828125 -2.078125 C 26.003906 -2.078125 28.800781 -3.019531 31.21875 -4.90625 C 33.632812 -6.789062 35.503906 -9.421875 36.828125 -12.796875 C 38.148438 -16.171875 38.8125 -20.078125 38.8125 -24.515625 L 38.8125 -47.546875 C 38.8125 -49.859375 39.601562 -51.015625 41.1875 -51.015625 C 41.582031 -51.015625 42.015625 -50.882812 42.484375 -50.625 L 42.484375 -3.078125 C 42.484375 -0.765625 41.6875 0.390625 40.09375 0.390625 C 39.695312 0.390625 39.269531 0.257812 38.8125 0 L 38.8125 -10.125 C 37.414062 -6.8125 35.34375 -4.128906 32.59375 -2.078125 C 29.851562 -0.0234375 26.597656 1 22.828125 1 Z M 22.828125 1 "/></g></g></g><g fill="#000000" fill-opacity="1"><g transform="translate(312.28712, 577.955331)"><g><path d="M 9.03125 0.390625 C 8.632812 0.390625 8.203125 0.257812 7.734375 0 L 7.734375 -47.546875 C 7.734375 -49.859375 8.53125 -51.015625 10.125 -51.015625 C 10.519531 -51.015625 10.945312 -50.882812 11.40625 -50.625 L 11.40625 -40.5 C 12.800781 -43.800781 14.882812 -46.476562 17.65625 -48.53125 C 20.4375 -50.582031 23.75 -51.609375 27.59375 -51.609375 C 32.6875 -51.609375 36.738281 -49.953125 39.75 -46.640625 C 42.757812 -43.335938 44.265625 -38.875 44.265625 -33.25 L 44.265625 -3.078125 C 44.265625 -0.765625 43.472656 0.390625 41.890625 0.390625 C 41.484375 0.390625 41.050781 0.257812 40.59375 0 L 40.59375 -33.25 C 40.59375 -37.945312 39.414062 -41.664062 37.0625 -44.40625 C 34.71875 -47.15625 31.5625 -48.53125 27.59375 -48.53125 C 24.351562 -48.53125 21.507812 -47.585938 19.0625 -45.703125 C 16.613281 -43.816406 14.722656 -41.1875 13.390625 -37.8125 C 12.066406 -34.4375 11.40625 -30.535156 11.40625 -26.109375 L 11.40625 -3.078125 C 11.40625 -0.765625 10.613281 0.390625 9.03125 0.390625 Z M 9.03125 0.390625 "/></g></g></g><g fill="#000000" fill-opacity="1"><g transform="translate(362.906396, 577.955331)"><g><path d="M 19.65625 1 C 16.539062 1 13.742188 0.550781 11.265625 -0.34375 C 8.785156 -1.238281 6.847656 -2.296875 5.453125 -3.515625 C 4.066406 -4.742188 3.375 -5.722656 3.375 -6.453125 C 3.375 -7.640625 4.035156 -8.234375 5.359375 -8.234375 C 7.148438 -6.253906 9.269531 -4.71875 11.71875 -3.625 C 14.164062 -2.53125 16.742188 -1.984375 19.453125 -1.984375 C 23.222656 -1.984375 26.25 -2.972656 28.53125 -4.953125 C 30.8125 -6.941406 31.953125 -9.59375 31.953125 -12.90625 C 31.953125 -15.75 30.941406 -18.113281 28.921875 -20 C 26.910156 -21.882812 23.421875 -23.65625 18.453125 -25.3125 C 13.234375 -27.09375 9.546875 -29.039062 7.390625 -31.15625 C 5.242188 -33.28125 4.171875 -35.929688 4.171875 -39.109375 C 4.171875 -42.941406 5.492188 -45.984375 8.140625 -48.234375 C 10.785156 -50.484375 14.328125 -51.609375 18.765625 -51.609375 C 21.671875 -51.609375 24.28125 -51.160156 26.59375 -50.265625 C 28.914062 -49.378906 30.753906 -48.320312 32.109375 -47.09375 C 33.460938 -45.875 34.140625 -44.898438 34.140625 -44.171875 C 34.140625 -42.972656 33.476562 -42.375 32.15625 -42.375 C 30.300781 -44.5 28.316406 -46.070312 26.203125 -47.09375 C 24.085938 -48.113281 21.707031 -48.625 19.0625 -48.625 C 15.550781 -48.625 12.816406 -47.796875 10.859375 -46.140625 C 8.910156 -44.492188 7.9375 -42.28125 7.9375 -39.5 C 7.9375 -36.914062 8.960938 -34.78125 11.015625 -33.09375 C 13.066406 -31.40625 16.671875 -29.671875 21.828125 -27.890625 C 26.859375 -26.097656 30.429688 -24.078125 32.546875 -21.828125 C 34.671875 -19.578125 35.734375 -16.664062 35.734375 -13.09375 C 35.734375 -8.664062 34.304688 -5.207031 31.453125 -2.71875 C 28.609375 -0.238281 24.675781 1 19.65625 1 Z M 19.65625 1 "/></g></g></g><g fill="#000000" fill-opacity="1"><g transform="translate(402.210769, 577.955331)"><g><path d="M 26.109375 1 C 21.609375 1 17.703125 -0.0546875 14.390625 -2.171875 C 11.078125 -4.296875 8.507812 -7.34375 6.6875 -11.3125 C 4.875 -15.28125 3.96875 -19.976562 3.96875 -25.40625 C 3.96875 -30.695312 4.828125 -35.3125 6.546875 -39.25 C 8.265625 -43.1875 10.710938 -46.226562 13.890625 -48.375 C 17.066406 -50.53125 20.804688 -51.609375 25.109375 -51.609375 C 31.328125 -51.609375 36.207031 -49.441406 39.75 -45.109375 C 43.289062 -40.773438 45.0625 -35.003906 45.0625 -27.796875 C 45.0625 -26.398438 44.925781 -25.273438 44.65625 -24.421875 L 7.734375 -24.421875 C 7.867188 -17.535156 9.554688 -12.070312 12.796875 -8.03125 C 16.046875 -4 20.484375 -1.984375 26.109375 -1.984375 C 31.929688 -1.984375 37.085938 -4.164062 41.578125 -8.53125 C 42.242188 -8.53125 42.742188 -8.378906 43.078125 -8.078125 C 43.410156 -7.785156 43.578125 -7.441406 43.578125 -7.046875 C 43.578125 -6.179688 42.78125 -5.101562 41.1875 -3.8125 C 39.601562 -2.53125 37.484375 -1.40625 34.828125 -0.4375 C 32.179688 0.519531 29.273438 1 26.109375 1 Z M 41.28125 -27.796875 C 41.019531 -34.273438 39.5 -39.363281 36.71875 -43.0625 C 33.9375 -46.769531 30 -48.625 24.90625 -48.625 C 19.613281 -48.625 15.460938 -46.671875 12.453125 -42.765625 C 9.441406 -38.867188 7.867188 -33.675781 7.734375 -27.1875 Z M 41.28125 -27.796875 "/></g></g></g><g fill="#000000" fill-opacity="1"><g transform="translate(451.043426, 577.955331)"><g><path d="M 9.234375 0.390625 C 8.835938 0.390625 8.40625 0.257812 7.9375 0 L 7.9375 -68.390625 C 7.9375 -70.703125 8.734375 -71.859375 10.328125 -71.859375 C 10.722656 -71.859375 11.148438 -71.722656 11.609375 -71.453125 L 11.609375 -3.078125 C 11.609375 -0.765625 10.816406 0.390625 9.234375 0.390625 Z M 9.234375 0.390625 "/></g></g></g><g fill="#000000" fill-opacity="1"><g transform="translate(470.596367, 577.955331)"><g><path d="M 9.71875 -60.640625 C 8.925781 -60.640625 8.28125 -60.882812 7.78125 -61.375 C 7.289062 -61.875 7.046875 -62.523438 7.046875 -63.328125 C 7.046875 -64.117188 7.289062 -64.757812 7.78125 -65.25 C 8.28125 -65.75 8.925781 -66 9.71875 -66 C 10.519531 -66 11.179688 -65.75 11.703125 -65.25 C 12.234375 -64.757812 12.5 -64.117188 12.5 -63.328125 C 12.5 -62.523438 12.234375 -61.875 11.703125 -61.375 C 11.179688 -60.882812 10.519531 -60.640625 9.71875 -60.640625 Z M 9.234375 0.390625 C 8.835938 0.390625 8.40625 0.257812 7.9375 0 L 7.9375 -47.546875 C 7.9375 -49.859375 8.734375 -51.015625 10.328125 -51.015625 C 10.722656 -51.015625 11.148438 -50.882812 11.609375 -50.625 L 11.609375 -3.078125 C 11.609375 -0.765625 10.816406 0.390625 9.234375 0.390625 Z M 9.234375 0.390625 "/></g></g></g><g fill="#000000" fill-opacity="1"><g transform="translate(490.149308, 577.955331)"><g><path d="M 9.03125 0.390625 C 8.632812 0.390625 8.203125 0.257812 7.734375 0 L 7.734375 -47.546875 C 7.734375 -49.859375 8.53125 -51.015625 10.125 -51.015625 C 10.519531 -51.015625 10.945312 -50.882812 11.40625 -50.625 L 11.40625 -40.5 C 12.800781 -43.800781 14.882812 -46.476562 17.65625 -48.53125 C 20.4375 -50.582031 23.75 -51.609375 27.59375 -51.609375 C 32.6875 -51.609375 36.738281 -49.953125 39.75 -46.640625 C 42.757812 -43.335938 44.265625 -38.875 44.265625 -33.25 L 44.265625 -3.078125 C 44.265625 -0.765625 43.472656 0.390625 41.890625 0.390625 C 41.484375 0.390625 41.050781 0.257812 40.59375 0 L 40.59375 -33.25 C 40.59375 -37.945312 39.414062 -41.664062 37.0625 -44.40625 C 34.71875 -47.15625 31.5625 -48.53125 27.59375 -48.53125 C 24.351562 -48.53125 21.507812 -47.585938 19.0625 -45.703125 C 16.613281 -43.816406 14.722656 -41.1875 13.390625 -37.8125 C 12.066406 -34.4375 11.40625 -30.535156 11.40625 -26.109375 L 11.40625 -3.078125 C 11.40625 -0.765625 10.613281 0.390625 9.03125 0.390625 Z M 9.03125 0.390625 "/></g></g></g><g fill="#000000" fill-opacity="1"><g transform="translate(540.768583, 577.955331)"><g><path d="M 47.84375 -47.546875 C 46.71875 -45.421875 45.9375 -43.332031 45.5 -41.28125 C 45.070312 -39.238281 44.859375 -36.128906 44.859375 -31.953125 L 44.859375 -5.359375 C 44.859375 0.722656 43.101562 5.617188 39.59375 9.328125 C 36.09375 13.035156 31.332031 14.890625 25.3125 14.890625 C 22 14.890625 18.96875 14.359375 16.21875 13.296875 C 13.476562 12.242188 11.3125 11.019531 9.71875 9.625 C 8.132812 8.238281 7.34375 7.148438 7.34375 6.359375 C 7.34375 5.160156 8.003906 4.5625 9.328125 4.5625 C 11.710938 7.082031 14.175781 8.9375 16.71875 10.125 C 19.269531 11.3125 22.132812 11.90625 25.3125 11.90625 C 30.539062 11.90625 34.492188 10.382812 37.171875 7.34375 C 39.847656 4.300781 41.1875 0.0664062 41.1875 -5.359375 L 41.1875 -13.5 C 39.269531 -10.1875 36.820312 -7.601562 33.84375 -5.75 C 30.863281 -3.90625 27.457031 -2.984375 23.625 -2.984375 C 19.65625 -2.984375 16.195312 -3.941406 13.25 -5.859375 C 10.300781 -7.773438 8.015625 -10.46875 6.390625 -13.9375 C 4.773438 -17.414062 3.96875 -21.4375 3.96875 -26 C 3.96875 -30.894531 4.859375 -35.273438 6.640625 -39.140625 C 8.429688 -43.015625 11.0625 -46.0625 14.53125 -48.28125 C 18.007812 -50.5 22.164062 -51.609375 27 -51.609375 C 28.65625 -51.609375 30.207031 -51.492188 31.65625 -51.265625 C 33.113281 -51.035156 34.96875 -50.6875 37.21875 -50.21875 C 39.332031 -49.757812 41.117188 -49.410156 42.578125 -49.171875 C 44.035156 -48.941406 45.59375 -48.828125 47.25 -48.828125 Z M 41.1875 -31.953125 C 41.1875 -34.929688 41.351562 -37.546875 41.6875 -39.796875 C 42.019531 -42.046875 42.613281 -44.066406 43.46875 -45.859375 C 41.882812 -45.921875 40.226562 -46.148438 38.5 -46.546875 C 36.78125 -46.941406 35.722656 -47.175781 35.328125 -47.25 C 33.273438 -47.707031 31.554688 -48.050781 30.171875 -48.28125 C 28.785156 -48.507812 27.363281 -48.625 25.90625 -48.625 C 20.144531 -48.625 15.675781 -46.503906 12.5 -42.265625 C 9.320312 -38.035156 7.734375 -32.613281 7.734375 -26 C 7.734375 -19.976562 9.140625 -15.128906 11.953125 -11.453125 C 14.765625 -7.785156 18.65625 -5.953125 23.625 -5.953125 C 27 -5.953125 30.023438 -6.828125 32.703125 -8.578125 C 35.378906 -10.335938 37.460938 -12.753906 38.953125 -15.828125 C 40.441406 -18.910156 41.1875 -22.398438 41.1875 -26.296875 Z M 41.1875 -31.953125 "/></g></g></g><g fill="#ffffff" fill-opacity="1"><g transform="translate(149.610668, 478.872238)"><g><path d="M 23.234375 0.859375 C 19.472656 0.859375 16.113281 0.359375 13.15625 -0.640625 C 10.195312 -1.640625 7.863281 -2.78125 6.15625 -4.0625 C 4.445312 -5.34375 3.59375 -6.320312 3.59375 -7 C 3.59375 -8.03125 4.160156 -8.546875 5.296875 -8.546875 C 9.515625 -4.046875 15.296875 -1.796875 22.640625 -1.796875 C 27.941406 -1.796875 31.957031 -2.929688 34.6875 -5.203125 C 37.414062 -7.484375 38.78125 -10.734375 38.78125 -14.953125 C 38.78125 -17.453125 38.238281 -19.613281 37.15625 -21.4375 C 36.082031 -23.257812 34.316406 -24.925781 31.859375 -26.4375 C 29.410156 -27.945312 26.082031 -29.414062 21.875 -30.84375 C 15.945312 -32.894531 11.757812 -35.144531 9.3125 -37.59375 C 6.863281 -40.039062 5.640625 -43.144531 5.640625 -46.90625 C 5.640625 -51.34375 7.0625 -54.742188 9.90625 -57.109375 C 12.757812 -59.472656 16.804688 -60.65625 22.046875 -60.65625 C 25.460938 -60.65625 28.59375 -60.15625 31.4375 -59.15625 C 34.289062 -58.164062 36.539062 -57.03125 38.1875 -55.75 C 39.84375 -54.46875 40.671875 -53.484375 40.671875 -52.796875 C 40.671875 -51.773438 40.097656 -51.265625 38.953125 -51.265625 C 36.910156 -53.429688 34.492188 -55.097656 31.703125 -56.265625 C 28.910156 -57.429688 25.832031 -58.015625 22.46875 -58.015625 C 18.144531 -58.015625 14.800781 -57.046875 12.4375 -55.109375 C 10.070312 -53.171875 8.890625 -50.492188 8.890625 -47.078125 C 8.890625 -44.054688 10.023438 -41.535156 12.296875 -39.515625 C 14.578125 -37.492188 18.507812 -35.484375 24.09375 -33.484375 C 28.53125 -31.890625 32.046875 -30.238281 34.640625 -28.53125 C 37.234375 -26.820312 39.113281 -24.925781 40.28125 -22.84375 C 41.445312 -20.769531 42.03125 -18.28125 42.03125 -15.375 C 42.03125 -10.195312 40.40625 -6.195312 37.15625 -3.375 C 33.914062 -0.550781 29.273438 0.859375 23.234375 0.859375 Z M 23.234375 0.859375 "/></g></g></g><g fill="#ffffff" fill-opacity="1"><g transform="translate(195.408898, 478.872238)"><g><path d="M 22.296875 0.859375 C 18.597656 0.859375 15.320312 -0.0664062 12.46875 -1.921875 C 9.625 -3.773438 7.40625 -6.410156 5.8125 -9.828125 C 4.21875 -13.242188 3.421875 -17.226562 3.421875 -21.78125 C 3.421875 -26.34375 4.21875 -30.332031 5.8125 -33.75 C 7.40625 -37.164062 9.625 -39.796875 12.46875 -41.640625 C 15.320312 -43.492188 18.597656 -44.421875 22.296875 -44.421875 C 24.804688 -44.421875 27.171875 -44.019531 29.390625 -43.21875 C 31.609375 -42.425781 33.398438 -41.503906 34.765625 -40.453125 C 36.140625 -39.398438 36.828125 -38.5625 36.828125 -37.9375 C 36.828125 -36.90625 36.253906 -36.390625 35.109375 -36.390625 C 31.410156 -40.035156 27.140625 -41.859375 22.296875 -41.859375 C 17.398438 -41.859375 13.570312 -40.0625 10.8125 -36.46875 C 8.050781 -32.882812 6.671875 -27.988281 6.671875 -21.78125 C 6.671875 -15.570312 8.050781 -10.671875 10.8125 -7.078125 C 13.570312 -3.492188 17.398438 -1.703125 22.296875 -1.703125 C 27.140625 -1.703125 31.410156 -3.523438 35.109375 -7.171875 C 36.253906 -7.171875 36.828125 -6.660156 36.828125 -5.640625 C 36.828125 -5.015625 36.140625 -4.171875 34.765625 -3.109375 C 33.398438 -2.054688 31.609375 -1.128906 29.390625 -0.328125 C 27.171875 0.460938 24.804688 0.859375 22.296875 0.859375 Z M 22.296875 0.859375 "/></g></g></g><g fill="#ffffff" fill-opacity="1"><g transform="translate(235.653205, 478.872238)"><g><path d="M 22.46875 0.859375 C 18.59375 0.859375 15.226562 -0.0507812 12.375 -1.875 C 9.53125 -3.695312 7.328125 -6.316406 5.765625 -9.734375 C 4.203125 -13.148438 3.421875 -17.195312 3.421875 -21.875 C 3.421875 -26.425781 4.160156 -30.394531 5.640625 -33.78125 C 7.117188 -37.175781 9.222656 -39.796875 11.953125 -41.640625 C 14.691406 -43.492188 17.910156 -44.421875 21.609375 -44.421875 C 26.960938 -44.421875 31.160156 -42.554688 34.203125 -38.828125 C 37.253906 -35.097656 38.78125 -30.128906 38.78125 -23.921875 C 38.78125 -22.722656 38.671875 -21.753906 38.453125 -21.015625 L 6.671875 -21.015625 C 6.773438 -15.085938 8.222656 -10.382812 11.015625 -6.90625 C 13.804688 -3.4375 17.625 -1.703125 22.46875 -1.703125 C 27.476562 -1.703125 31.921875 -3.582031 35.796875 -7.34375 C 36.367188 -7.34375 36.796875 -7.210938 37.078125 -6.953125 C 37.359375 -6.703125 37.5 -6.40625 37.5 -6.0625 C 37.5 -5.320312 36.816406 -4.394531 35.453125 -3.28125 C 34.085938 -2.175781 32.265625 -1.207031 29.984375 -0.375 C 27.710938 0.445312 25.207031 0.859375 22.46875 0.859375 Z M 35.546875 -23.921875 C 35.316406 -29.503906 34.003906 -33.890625 31.609375 -37.078125 C 29.222656 -40.265625 25.832031 -41.859375 21.4375 -41.859375 C 16.882812 -41.859375 13.3125 -40.175781 10.71875 -36.8125 C 8.125 -33.457031 6.773438 -28.988281 6.671875 -23.40625 Z M 35.546875 -23.921875 "/></g></g></g><g fill="#ffffff" fill-opacity="1"><g transform="translate(277.691834, 478.872238)"><g><path d="M 7.78125 0.34375 C 7.4375 0.34375 7.066406 0.226562 6.671875 0 L 6.671875 -40.921875 C 6.671875 -42.921875 7.351562 -43.921875 8.71875 -43.921875 C 9.0625 -43.921875 9.429688 -43.804688 9.828125 -43.578125 L 9.828125 -34.859375 C 11.023438 -37.703125 12.816406 -40.003906 15.203125 -41.765625 C 17.597656 -43.535156 20.445312 -44.421875 23.75 -44.421875 C 28.132812 -44.421875 31.625 -43 34.21875 -40.15625 C 36.8125 -37.3125 38.109375 -33.46875 38.109375 -28.625 L 38.109375 -2.65625 C 38.109375 -0.65625 37.421875 0.34375 36.046875 0.34375 C 35.710938 0.34375 35.34375 0.226562 34.9375 0 L 34.9375 -28.625 C 34.9375 -32.664062 33.925781 -35.867188 31.90625 -38.234375 C 29.882812 -40.597656 27.164062 -41.78125 23.75 -41.78125 C 20.957031 -41.78125 18.507812 -40.96875 16.40625 -39.34375 C 14.300781 -37.71875 12.675781 -35.453125 11.53125 -32.546875 C 10.394531 -29.640625 9.828125 -26.28125 9.828125 -22.46875 L 9.828125 -2.65625 C 9.828125 -0.65625 9.144531 0.34375 7.78125 0.34375 Z M 7.78125 0.34375 "/></g></g></g><g fill="#ffffff" fill-opacity="1"><g transform="translate(321.26851, 478.872238)"><g><path d="M 8.375 -52.203125 C 7.6875 -52.203125 7.128906 -52.414062 6.703125 -52.84375 C 6.273438 -53.269531 6.0625 -53.828125 6.0625 -54.515625 C 6.0625 -55.191406 6.273438 -55.742188 6.703125 -56.171875 C 7.128906 -56.597656 7.6875 -56.8125 8.375 -56.8125 C 9.050781 -56.8125 9.617188 -56.597656 10.078125 -56.171875 C 10.535156 -55.742188 10.765625 -55.191406 10.765625 -54.515625 C 10.765625 -53.828125 10.535156 -53.269531 10.078125 -52.84375 C 9.617188 -52.414062 9.050781 -52.203125 8.375 -52.203125 Z M 7.953125 0.34375 C 7.609375 0.34375 7.234375 0.226562 6.828125 0 L 6.828125 -40.921875 C 6.828125 -42.921875 7.515625 -43.921875 8.890625 -43.921875 C 9.222656 -43.921875 9.59375 -43.804688 10 -43.578125 L 10 -2.65625 C 10 -0.65625 9.316406 0.34375 7.953125 0.34375 Z M 7.953125 0.34375 "/></g></g></g><g fill="#ffffff" fill-opacity="1"><g transform="translate(338.101074, 478.872238)"><g><path d="M 22.296875 0.859375 C 18.597656 0.859375 15.320312 -0.0664062 12.46875 -1.921875 C 9.625 -3.773438 7.40625 -6.410156 5.8125 -9.828125 C 4.21875 -13.242188 3.421875 -17.226562 3.421875 -21.78125 C 3.421875 -26.34375 4.21875 -30.332031 5.8125 -33.75 C 7.40625 -37.164062 9.625 -39.796875 12.46875 -41.640625 C 15.320312 -43.492188 18.597656 -44.421875 22.296875 -44.421875 C 24.804688 -44.421875 27.171875 -44.019531 29.390625 -43.21875 C 31.609375 -42.425781 33.398438 -41.503906 34.765625 -40.453125 C 36.140625 -39.398438 36.828125 -38.5625 36.828125 -37.9375 C 36.828125 -36.90625 36.253906 -36.390625 35.109375 -36.390625 C 31.410156 -40.035156 27.140625 -41.859375 22.296875 -41.859375 C 17.398438 -41.859375 13.570312 -40.0625 10.8125 -36.46875 C 8.050781 -32.882812 6.671875 -27.988281 6.671875 -21.78125 C 6.671875 -15.570312 8.050781 -10.671875 10.8125 -7.078125 C 13.570312 -3.492188 17.398438 -1.703125 22.296875 -1.703125 C 27.140625 -1.703125 31.410156 -3.523438 35.109375 -7.171875 C 36.253906 -7.171875 36.828125 -6.660156 36.828125 -5.640625 C 36.828125 -5.015625 36.140625 -4.171875 34.765625 -3.109375 C 33.398438 -2.054688 31.609375 -1.128906 29.390625 -0.328125 C 27.171875 0.460938 24.804688 0.859375 22.296875 0.859375 Z M 22.296875 0.859375 "/></g></g></g><g fill="#ffffff" fill-opacity="1"><g transform="translate(378.345381, 478.872238)"><g/></g></g><g fill="#ffffff" fill-opacity="1"><g transform="translate(395.434299, 478.872238)"><g><path d="M 20.25 -60.65625 C 24.632812 -60.65625 28.445312 -59.972656 31.6875 -58.609375 C 34.9375 -57.242188 37.441406 -55.28125 39.203125 -52.71875 C 40.972656 -50.15625 41.859375 -47.164062 41.859375 -43.75 C 41.859375 -40.332031 40.972656 -37.351562 39.203125 -34.8125 C 37.441406 -32.28125 34.9375 -30.328125 31.6875 -28.953125 C 28.445312 -27.585938 24.632812 -26.90625 20.25 -26.90625 L 10.765625 -26.90625 L 10.765625 -2.65625 C 10.765625 -0.65625 10.050781 0.34375 8.625 0.34375 C 8.28125 0.34375 7.910156 0.226562 7.515625 0 L 7.515625 -43.921875 C 7.515625 -47.734375 7.359375 -50.773438 7.046875 -53.046875 C 6.734375 -55.328125 6.148438 -57.320312 5.296875 -59.03125 L 5.8125 -60.140625 C 8.09375 -60.140625 10.425781 -60.226562 12.8125 -60.40625 C 13.550781 -60.457031 14.675781 -60.507812 16.1875 -60.5625 C 17.695312 -60.625 19.050781 -60.65625 20.25 -60.65625 Z M 21.609375 -29.5625 C 26.796875 -29.5625 30.910156 -30.84375 33.953125 -33.40625 C 37.003906 -35.96875 38.53125 -39.414062 38.53125 -43.75 C 38.53125 -48.070312 37.003906 -51.515625 33.953125 -54.078125 C 30.910156 -56.640625 26.796875 -57.921875 21.609375 -57.921875 C 20.128906 -57.921875 18.734375 -57.890625 17.421875 -57.828125 C 16.117188 -57.773438 14.984375 -57.722656 14.015625 -57.671875 C 12.191406 -57.492188 10.566406 -57.40625 9.140625 -57.40625 C 10.222656 -54.5625 10.765625 -50.066406 10.765625 -43.921875 L 10.765625 -29.5625 Z M 21.609375 -29.5625 "/></g></g></g><g fill="#ffffff" fill-opacity="1"><g transform="translate(440.036315, 478.872238)"><g><path d="M 22.46875 0.859375 C 18.59375 0.859375 15.226562 -0.0507812 12.375 -1.875 C 9.53125 -3.695312 7.328125 -6.316406 5.765625 -9.734375 C 4.203125 -13.148438 3.421875 -17.195312 3.421875 -21.875 C 3.421875 -26.425781 4.160156 -30.394531 5.640625 -33.78125 C 7.117188 -37.175781 9.222656 -39.796875 11.953125 -41.640625 C 14.691406 -43.492188 17.910156 -44.421875 21.609375 -44.421875 C 26.960938 -44.421875 31.160156 -42.554688 34.203125 -38.828125 C 37.253906 -35.097656 38.78125 -30.128906 38.78125 -23.921875 C 38.78125 -22.722656 38.671875 -21.753906 38.453125 -21.015625 L 6.671875 -21.015625 C 6.773438 -15.085938 8.222656 -10.382812 11.015625 -6.90625 C 13.804688 -3.4375 17.625 -1.703125 22.46875 -1.703125 C 27.476562 -1.703125 31.921875 -3.582031 35.796875 -7.34375 C 36.367188 -7.34375 36.796875 -7.210938 37.078125 -6.953125 C 37.359375 -6.703125 37.5 -6.40625 37.5 -6.0625 C 37.5 -5.320312 36.816406 -4.394531 35.453125 -3.28125 C 34.085938 -2.175781 32.265625 -1.207031 29.984375 -0.375 C 27.710938 0.445312 25.207031 0.859375 22.46875 0.859375 Z M 35.546875 -23.921875 C 35.316406 -29.503906 34.003906 -33.890625 31.609375 -37.078125 C 29.222656 -40.265625 25.832031 -41.859375 21.4375 -41.859375 C 16.882812 -41.859375 13.3125 -40.175781 10.71875 -36.8125 C 8.125 -33.457031 6.773438 -28.988281 6.671875 -23.40625 Z M 35.546875 -23.921875 "/></g></g></g><g fill="#ffffff" fill-opacity="1"><g transform="translate(482.074944, 478.872238)"><g><path d="M 17.515625 0.859375 C 13.472656 0.859375 10.253906 -0.335938 7.859375 -2.734375 C 5.460938 -5.128906 4.265625 -8.347656 4.265625 -12.390625 C 4.265625 -16.546875 5.617188 -19.832031 8.328125 -22.25 C 11.035156 -24.675781 14.664062 -25.890625 19.21875 -25.890625 C 21.84375 -25.890625 24.179688 -25.519531 26.234375 -24.78125 C 28.285156 -24.039062 29.9375 -23.015625 31.1875 -21.703125 L 31.1875 -28.1875 C 31.1875 -32.351562 30.085938 -35.671875 27.890625 -38.140625 C 25.703125 -40.617188 22.753906 -41.859375 19.046875 -41.859375 C 14.722656 -41.859375 10.820312 -40.035156 7.34375 -36.390625 C 6.207031 -36.390625 5.640625 -36.90625 5.640625 -37.9375 C 5.640625 -38.5625 6.28125 -39.398438 7.5625 -40.453125 C 8.84375 -41.503906 10.535156 -42.425781 12.640625 -43.21875 C 14.753906 -44.019531 17.003906 -44.421875 19.390625 -44.421875 C 23.890625 -44.421875 27.503906 -42.941406 30.234375 -39.984375 C 32.972656 -37.023438 34.34375 -33.09375 34.34375 -28.1875 L 34.34375 -2.65625 C 34.34375 -0.65625 33.660156 0.34375 32.296875 0.34375 C 31.953125 0.34375 31.582031 0.226562 31.1875 0 L 31.1875 -5.46875 C 29.59375 -3.53125 27.597656 -1.988281 25.203125 -0.84375 C 22.804688 0.289062 20.242188 0.859375 17.515625 0.859375 Z M 17.171875 -1.703125 C 19.453125 -1.703125 21.671875 -2.171875 23.828125 -3.109375 C 25.992188 -4.054688 27.757812 -5.382812 29.125 -7.09375 C 30.5 -8.800781 31.1875 -10.765625 31.1875 -12.984375 L 31.1875 -15.8125 C 31.1875 -18.257812 29.972656 -20.125 27.546875 -21.40625 C 25.128906 -22.6875 22.210938 -23.328125 18.796875 -23.328125 C 15.316406 -23.328125 12.566406 -22.328125 10.546875 -20.328125 C 8.523438 -18.335938 7.515625 -15.660156 7.515625 -12.296875 C 7.515625 -9.054688 8.382812 -6.476562 10.125 -4.5625 C 11.863281 -2.65625 14.210938 -1.703125 17.171875 -1.703125 Z M 17.171875 -1.703125 "/></g></g></g><g fill="#ffffff" fill-opacity="1"><g transform="translate(521.892019, 478.872238)"><g><path d="M 34.09375 -3.25 C 35.394531 -1.707031 36.390625 -0.796875 37.078125 -0.515625 L 37.078125 0 C 36.566406 0.226562 35.96875 0.34375 35.28125 0.34375 C 33.914062 0.34375 32.863281 -0.113281 32.125 -1.03125 L 14.953125 -20.671875 L 9.828125 -14.953125 L 9.828125 -2.65625 C 9.828125 -0.65625 9.144531 0.34375 7.78125 0.34375 C 7.4375 0.34375 7.066406 0.226562 6.671875 0 L 6.671875 -58.859375 C 6.671875 -60.859375 7.351562 -61.859375 8.71875 -61.859375 C 9.0625 -61.859375 9.429688 -61.742188 9.828125 -61.515625 L 9.828125 -19.3125 L 30.671875 -42.375 C 31.523438 -43.40625 32.632812 -43.921875 34 -43.921875 C 34.570312 -43.921875 35.144531 -43.832031 35.71875 -43.65625 L 15.984375 -21.703125 C 16.085938 -21.753906 16.3125 -21.78125 16.65625 -21.78125 C 17.6875 -21.78125 18.710938 -21.097656 19.734375 -19.734375 Z M 34.09375 -3.25 "/></g></g></g><g fill="#ffffff" fill-opacity="1"><g transform="translate(560.171128, 478.872238)"><g><path d="M 16.921875 0.859375 C 14.242188 0.859375 11.835938 0.472656 9.703125 -0.296875 C 7.566406 -1.066406 5.898438 -1.976562 4.703125 -3.03125 C 3.503906 -4.082031 2.90625 -4.921875 2.90625 -5.546875 C 2.90625 -6.578125 3.472656 -7.09375 4.609375 -7.09375 C 6.148438 -5.382812 7.972656 -4.054688 10.078125 -3.109375 C 12.191406 -2.171875 14.414062 -1.703125 16.75 -1.703125 C 19.988281 -1.703125 22.59375 -2.554688 24.5625 -4.265625 C 26.53125 -5.972656 27.515625 -8.253906 27.515625 -11.109375 C 27.515625 -13.554688 26.644531 -15.59375 24.90625 -17.21875 C 23.164062 -18.84375 20.160156 -20.363281 15.890625 -21.78125 C 11.390625 -23.320312 8.210938 -25.003906 6.359375 -26.828125 C 4.515625 -28.648438 3.59375 -30.925781 3.59375 -33.65625 C 3.59375 -36.96875 4.726562 -39.585938 7 -41.515625 C 9.28125 -43.453125 12.328125 -44.421875 16.140625 -44.421875 C 18.648438 -44.421875 20.898438 -44.035156 22.890625 -43.265625 C 24.890625 -42.503906 26.472656 -41.59375 27.640625 -40.53125 C 28.804688 -39.476562 29.390625 -38.640625 29.390625 -38.015625 C 29.390625 -36.992188 28.820312 -36.484375 27.6875 -36.484375 C 26.09375 -38.304688 24.382812 -39.65625 22.5625 -40.53125 C 20.738281 -41.414062 18.6875 -41.859375 16.40625 -41.859375 C 13.382812 -41.859375 11.03125 -41.144531 9.34375 -39.71875 C 7.664062 -38.300781 6.828125 -36.394531 6.828125 -34 C 6.828125 -31.78125 7.707031 -29.941406 9.46875 -28.484375 C 11.238281 -27.035156 14.347656 -25.546875 18.796875 -24.015625 C 23.128906 -22.472656 26.203125 -20.734375 28.015625 -18.796875 C 29.835938 -16.859375 30.75 -14.351562 30.75 -11.28125 C 30.75 -7.457031 29.523438 -4.476562 27.078125 -2.34375 C 24.628906 -0.207031 21.242188 0.859375 16.921875 0.859375 Z M 16.921875 0.859375 "/></g></g></g></svg>